<svg xmlns="http://www.w3.org/2000/svg" xmlns:xlink="http://www.w3.org/1999/xlink" version="1.1" width="256" height="256" viewBox="0 0 256 256" xml:space="preserve">
<g style="stroke: none; stroke-width: 0; stroke-dasharray: none; stroke-linecap: butt; stroke-linejoin: miter; stroke-miterlimit: 10; fill: none; fill-rule: nonzero; opacity: 1;" transform="translate(1.4065934065934016 1.4065934065934016) scale(2.81 2.81)">
	<path d="M 45.095 54.211 c 0.095 -0.217 0.178 -0.439 0.262 -0.662 c 0.05 -0.135 0.103 -0.269 0.149 -0.407 c 0.106 -0.311 0.197 -0.628 0.281 -0.949 c 0.014 -0.055 0.029 -0.11 0.043 -0.165 c 0.09 -0.364 0.163 -0.733 0.222 -1.108 c 0.002 -0.013 0.006 -0.026 0.008 -0.039 c 0.001 -0.005 0 -0.009 0 -0.014 c 0.103 -0.669 0.173 -1.348 0.173 -2.045 c 0 -7.403 -6.023 -13.426 -13.426 -13.426 c -6.556 0 -12.021 4.727 -13.187 10.95 c -0.001 0.003 -0.002 0.005 -0.003 0.008 c -0.008 0.044 -0.011 0.087 -0.019 0.131 c -0.063 0.359 -0.12 0.721 -0.154 1.089 c -0.041 0.422 -0.063 0.839 -0.063 1.248 c 0 7.403 6.023 13.426 13.426 13.426 c 0.446 0 0.887 -0.025 1.322 -0.067 c 0.095 -0.009 0.186 -0.027 0.28 -0.038 c 0.35 -0.041 0.696 -0.092 1.038 -0.159 c 0.073 -0.015 0.144 -0.034 0.217 -0.049 c 0.371 -0.079 0.736 -0.173 1.095 -0.282 c 0.031 -0.009 0.061 -0.02 0.091 -0.03 c 3.324 -1.039 6.096 -3.325 7.743 -6.379 c 0.03 -0.056 0.056 -0.114 0.086 -0.17 C 44.826 54.792 44.967 54.506 45.095 54.211 z M 32.807 37.397 c 6.3 0 11.426 5.125 11.426 11.426 c 0 0.406 -0.023 0.806 -0.064 1.201 c -5.601 2.371 -8.411 0.431 -11.641 -1.819 c -2.706 -1.886 -5.744 -3.986 -10.531 -3.052 C 23.53 40.65 27.791 37.397 32.807 37.397 z M 21.381 48.823 c 0 -0.467 0.037 -0.949 0.101 -1.439 c 0.003 -0.023 0.007 -0.045 0.01 -0.068 c 4.487 -1.232 7 0.516 9.892 2.531 c 3.039 2.116 6.447 4.489 12.277 2.519 c -0.127 0.394 -0.28 0.774 -0.446 1.147 c -0.107 0.236 -0.215 0.472 -0.337 0.699 c -0.024 0.045 -0.05 0.089 -0.075 0.134 c -1.578 2.844 -4.332 4.947 -7.602 5.647 c -0.067 0.014 -0.133 0.028 -0.2 0.04 c -0.279 0.054 -0.562 0.096 -0.847 0.13 c -0.088 0.01 -0.175 0.023 -0.264 0.032 c -0.357 0.034 -0.717 0.055 -1.082 0.055 C 26.506 60.249 21.381 55.123 21.381 48.823 z" style="stroke: none; stroke-width: 1; stroke-dasharray: none; stroke-linecap: butt; stroke-linejoin: miter; stroke-miterlimit: 10; fill: rgb(0,0,0); fill-rule: nonzero; opacity: 1;" transform=" matrix(1 0 0 1 0 0) " stroke-linecap="round"/>
	<path d="M 21.434 10.666 H 9.537 c -2.33 0 -4.226 1.896 -4.226 4.226 s 1.896 4.226 4.226 4.226 h 11.896 c 2.33 0 4.226 -1.896 4.226 -4.226 S 23.764 10.666 21.434 10.666 z M 21.434 17.118 H 9.537 c -1.228 0 -2.226 -0.999 -2.226 -2.226 s 0.999 -2.226 2.226 -2.226 h 11.896 c 1.228 0 2.226 0.999 2.226 2.226 S 22.661 17.118 21.434 17.118 z" style="stroke: none; stroke-width: 1; stroke-dasharray: none; stroke-linecap: butt; stroke-linejoin: miter; stroke-miterlimit: 10; fill: rgb(0,0,0); fill-rule: nonzero; opacity: 1;" transform=" matrix(1 0 0 1 0 0) " stroke-linecap="round"/>
	<path d="M 41.738 10.666 h -1.615 c -2.33 0 -4.226 1.896 -4.226 4.226 s 1.896 4.226 4.226 4.226 h 1.615 c 2.331 0 4.227 -1.896 4.227 -4.226 S 44.069 10.666 41.738 10.666 z M 41.738 17.118 h -1.615 c -1.228 0 -2.226 -0.999 -2.226 -2.226 s 0.999 -2.226 2.226 -2.226 h 1.615 c 1.228 0 2.227 0.999 2.227 2.226 S 42.966 17.118 41.738 17.118 z" style="stroke: none; stroke-width: 1; stroke-dasharray: none; stroke-linecap: butt; stroke-linejoin: miter; stroke-miterlimit: 10; fill: rgb(0,0,0); fill-rule: nonzero; opacity: 1;" transform=" matrix(1 0 0 1 0 0) " stroke-linecap="round"/>
	<path d="M 56.076 10.666 h -1.615 c -2.33 0 -4.227 1.896 -4.227 4.226 s 1.896 4.226 4.227 4.226 h 1.615 c 2.33 0 4.226 -1.896 4.226 -4.226 S 58.406 10.666 56.076 10.666 z M 56.076 17.118 h -1.615 c -1.228 0 -2.227 -0.999 -2.227 -2.226 s 0.999 -2.226 2.227 -2.226 h 1.615 c 1.228 0 2.226 0.999 2.226 2.226 S 57.304 17.118 56.076 17.118 z" style="stroke: none; stroke-width: 1; stroke-dasharray: none; stroke-linecap: butt; stroke-linejoin: miter; stroke-miterlimit: 10; fill: rgb(0,0,0); fill-rule: nonzero; opacity: 1;" transform=" matrix(1 0 0 1 0 0) " stroke-linecap="round"/>
	<path d="M 89.772 62.056 c -0.19 -0.23 -0.474 -0.364 -0.772 -0.364 h -1.292 l -3.15 -2.709 c -0.138 -0.119 -0.289 -0.217 -0.432 -0.328 c -4.154 -9.266 -9.423 -8 -14.519 -6.769 c -1.304 0.314 -2.64 0.628 -3.993 0.791 v -29.57 V 10.106 c 0 -2.443 -1.987 -4.431 -4.431 -4.431 H 4.431 C 1.988 5.675 0 7.663 0 10.106 v 13.001 v 51.432 v 5.354 c 0 2.443 1.988 4.431 4.431 4.431 h 42.71 h 34.922 c 2.157 0 4.024 -1.537 4.439 -3.654 l 3.479 -17.786 C 90.039 62.59 89.962 62.286 89.772 62.056 z M 84.641 61.691 H 44.707 l 4.539 -3.135 c 0 0 0 0 0 0 l 4.88 -3.37 c 0.31 -0.214 0.634 -0.4 0.964 -0.57 c 0.045 -0.023 0.09 -0.048 0.136 -0.071 c 0.335 -0.165 0.678 -0.309 1.029 -0.428 c 0.018 -0.006 0.036 -0.012 0.055 -0.018 c 1.876 -0.626 3.929 -0.607 5.794 0.061 c 0 0 0 0 0.001 0 c 0.364 0.13 0.721 0.288 1.068 0.468 c 0.029 0.015 0.058 0.031 0.087 0.046 c 0.268 0.143 0.53 0.3 0.785 0.471 c 0.009 0.006 0.019 0.012 0.029 0.019 c 0.247 0.166 0.481 0.341 0.699 0.525 l 0.922 0.775 c 2.662 2.237 6.262 3.056 9.635 2.188 c 0.054 -0.014 0.109 -0.02 0.163 -0.033 c 0.28 -0.066 0.561 -0.125 0.843 -0.163 c 0.121 -0.016 0.241 -0.019 0.362 -0.031 c 0.216 -0.02 0.432 -0.041 0.648 -0.045 c 0.152 -0.003 0.303 0.007 0.454 0.012 c 0.179 0.006 0.359 0.01 0.537 0.027 c 0.184 0.018 0.366 0.047 0.547 0.076 c 0.136 0.021 0.273 0.042 0.408 0.07 c 0.219 0.046 0.435 0.102 0.65 0.164 c 0.087 0.025 0.175 0.05 0.261 0.078 c 0.252 0.082 0.501 0.174 0.746 0.279 c 0.04 0.017 0.08 0.034 0.119 0.052 c 0.277 0.124 0.55 0.259 0.815 0.412 c 0.003 0.002 0.005 0.003 0.008 0.005 c 0.282 0.163 0.557 0.342 0.824 0.537 c 0.002 0.001 0.004 0.002 0.006 0.003 c 0.179 0.131 0.361 0.257 0.531 0.403 L 84.641 61.691 z M 63.59 52.609 c -0.845 -0.383 -1.729 -0.652 -2.632 -0.807 c -0.001 0 -0.003 0 -0.004 -0.001 c -1.812 -0.311 -3.69 -0.163 -5.447 0.458 c -0.007 0.002 -0.014 0.004 -0.021 0.007 c -0.403 0.143 -0.797 0.314 -1.184 0.507 c -0.07 0.035 -0.14 0.072 -0.21 0.109 c -0.377 0.198 -0.747 0.411 -1.104 0.657 l -1.966 1.358 c 0.653 -1.954 0.993 -4.008 0.993 -6.075 c 0 -10.592 -8.617 -19.209 -19.209 -19.209 s -19.209 8.617 -19.209 19.209 s 8.617 19.209 19.209 19.209 c 2.479 0 4.878 -0.469 7.151 -1.388 l 1.349 6.895 H 2 V 24.107 h 61.613 v 28.511 C 63.606 52.615 63.598 52.613 63.59 52.609 z M 40.203 61.691 c -0.299 0 -0.582 0.134 -0.772 0.364 s -0.267 0.534 -0.209 0.828 l 0.345 1.761 c -2.139 0.921 -4.41 1.388 -6.76 1.388 c -9.489 0 -17.209 -7.72 -17.209 -17.209 s 7.72 -17.209 17.209 -17.209 s 17.209 7.72 17.209 17.209 c 0 2.863 -0.724 5.7 -2.098 8.219 l -6.732 4.649 H 40.203 z M 70.076 53.829 c 4.444 -1.072 7.817 -1.886 10.916 3.126 c -0.284 -0.098 -0.572 -0.179 -0.862 -0.253 c -0.121 -0.03 -0.242 -0.056 -0.363 -0.082 c -0.339 -0.073 -0.681 -0.136 -1.026 -0.175 c -0.038 -0.004 -0.076 -0.006 -0.114 -0.01 c -0.357 -0.037 -0.717 -0.053 -1.077 -0.054 c -0.073 0 -0.146 -0.002 -0.219 -0.001 c -0.374 0.006 -0.749 0.033 -1.124 0.079 c -0.072 0.009 -0.143 0.021 -0.215 0.031 c -0.389 0.056 -0.777 0.126 -1.162 0.225 c -2.743 0.708 -5.678 0.042 -7.848 -1.781 l -0.426 -0.359 C 67.761 54.388 68.93 54.106 70.076 53.829 z M 2 10.106 c 0 -1.34 1.09 -2.431 2.431 -2.431 h 56.752 c 1.34 0 2.431 1.091 2.431 2.431 v 12.001 H 2 V 10.106 z M 4.431 82.324 C 3.09 82.324 2 81.233 2 79.894 v -4.354 h 39.698 l 1.004 5.13 c 0.056 0.286 0.143 0.559 0.249 0.822 c 0.035 0.087 0.082 0.165 0.122 0.249 c 0.081 0.17 0.165 0.337 0.266 0.494 c 0.018 0.029 0.03 0.062 0.049 0.091 H 4.431 z M 84.539 80.285 c -0.231 1.182 -1.273 2.039 -2.477 2.039 H 47.141 c -0.151 0 -0.298 -0.013 -0.443 -0.039 c -1.009 -0.18 -1.831 -0.966 -2.033 -2 l -3.247 -16.594 h 0.08 h 45.839 h 0.448 L 84.539 80.285 z" style="stroke: none; stroke-width: 1; stroke-dasharray: none; stroke-linecap: butt; stroke-linejoin: miter; stroke-miterlimit: 10; fill: rgb(0,0,0); fill-rule: nonzero; opacity: 1;" transform=" matrix(1 0 0 1 0 0) " stroke-linecap="round"/>
	<path d="M 64.602 67.31 c -0.553 0 -1 0.447 -1 1 v 9.525 c 0 0.553 0.447 1 1 1 s 1 -0.447 1 -1 V 68.31 C 65.602 67.757 65.154 67.31 64.602 67.31 z" style="stroke: none; stroke-width: 1; stroke-dasharray: none; stroke-linecap: butt; stroke-linejoin: miter; stroke-miterlimit: 10; fill: rgb(0,0,0); fill-rule: nonzero; opacity: 1;" transform=" matrix(1 0 0 1 0 0) " stroke-linecap="round"/>
	<path d="M 74.12 67.327 c -0.552 -0.104 -1.066 0.254 -1.169 0.796 l -1.806 9.525 c -0.103 0.543 0.254 1.066 0.796 1.169 c 0.063 0.012 0.126 0.018 0.188 0.018 c 0.471 0 0.891 -0.334 0.981 -0.813 l 1.806 -9.525 C 75.019 67.953 74.662 67.43 74.12 67.327 z" style="stroke: none; stroke-width: 1; stroke-dasharray: none; stroke-linecap: butt; stroke-linejoin: miter; stroke-miterlimit: 10; fill: rgb(0,0,0); fill-rule: nonzero; opacity: 1;" transform=" matrix(1 0 0 1 0 0) " stroke-linecap="round"/>
	<path d="M 55.083 67.327 c -0.542 0.103 -0.898 0.626 -0.796 1.169 l 1.806 9.525 c 0.091 0.479 0.511 0.813 0.981 0.813 c 0.062 0 0.124 -0.006 0.188 -0.018 c 0.542 -0.103 0.898 -0.626 0.796 -1.169 l -1.806 -9.525 C 56.149 67.581 55.633 67.228 55.083 67.327 z" style="stroke: none; stroke-width: 1; stroke-dasharray: none; stroke-linecap: butt; stroke-linejoin: miter; stroke-miterlimit: 10; fill: rgb(0,0,0); fill-rule: nonzero; opacity: 1;" transform=" matrix(1 0 0 1 0 0) " stroke-linecap="round"/>
</g>
</svg>